{
	"asset":{
		"generator":"Khronos glTF Blender I/O v4.2.60",
		"version":"2.0"
	},
	"scene":0,
	"scenes":[
		{
			"name":"Scene",
			"nodes":[
				0,
				1
			]
		}
	],
	"nodes":[
		{
			"mesh":0,
			"name":"A_AirPlane1"
		},
		{
			"mesh":1,
			"name":"Plane",
			"scale":[
				491.8109130859375,
				491.8109130859375,
				491.8109130859375
			]
		}
	],
	"materials":[
		{
			"doubleSided":true,
			"name":"Material_metal",
			"pbrMetallicRoughness":{
				"metallicFactor":0,
				"roughnessFactor":0.5
			}
		},
		{
			"doubleSided":true,
			"name":"Material_metal.001",
			"pbrMetallicRoughness":{
				"metallicFactor":0,
				"roughnessFactor":0.5
			}
		}
	],
	"meshes":[
		{
			"name":"Cube.062",
			"primitives":[
				{
					"attributes":{
						"POSITION":0,
						"NORMAL":1,
						"TEXCOORD_0":2
					},
					"indices":3,
					"material":0
				},
				{
					"attributes":{
						"POSITION":4,
						"NORMAL":5,
						"TEXCOORD_0":6
					},
					"indices":7,
					"material":1
				}
			]
		},
		{
			"name":"Plane",
			"primitives":[
				{
					"attributes":{
						"POSITION":8,
						"NORMAL":9,
						"TEXCOORD_0":10
					},
					"indices":11
				}
			]
		}
	],
	"accessors":[
		{
			"bufferView":0,
			"componentType":5126,
			"count":8991,
			"max":[
				17.956422805786133,
				12.446027755737305,
				16.22191619873047
			],
			"min":[
				-17.904117584228516,
				0.01566934585571289,
				-23.518390655517578
			],
			"type":"VEC3"
		},
		{
			"bufferView":1,
			"componentType":5126,
			"count":8991,
			"type":"VEC3"
		},
		{
			"bufferView":2,
			"componentType":5126,
			"count":8991,
			"type":"VEC2"
		},
		{
			"bufferView":3,
			"componentType":5123,
			"count":49968,
			"type":"SCALAR"
		},
		{
			"bufferView":4,
			"componentType":5126,
			"count":504,
			"max":[
				0.6063694953918457,
				3.1470143795013428,
				12.703883171081543
			],
			"min":[
				-0.5644477605819702,
				2.1016485691070557,
				-6.105745792388916
			],
			"type":"VEC3"
		},
		{
			"bufferView":5,
			"componentType":5126,
			"count":504,
			"type":"VEC3"
		},
		{
			"bufferView":6,
			"componentType":5126,
			"count":504,
			"type":"VEC2"
		},
		{
			"bufferView":7,
			"componentType":5123,
			"count":2772,
			"type":"SCALAR"
		},
		{
			"bufferView":8,
			"componentType":5126,
			"count":4,
			"max":[
				1,
				0,
				1
			],
			"min":[
				-1,
				0,
				-1
			],
			"type":"VEC3"
		},
		{
			"bufferView":9,
			"componentType":5126,
			"count":4,
			"type":"VEC3"
		},
		{
			"bufferView":10,
			"componentType":5126,
			"count":4,
			"type":"VEC2"
		},
		{
			"bufferView":11,
			"componentType":5123,
			"count":6,
			"type":"SCALAR"
		}
	],
	"bufferViews":[
		{
			"buffer":0,
			"byteLength":107892,
			"byteOffset":0,
			"target":34962
		},
		{
			"buffer":0,
			"byteLength":107892,
			"byteOffset":107892,
			"target":34962
		},
		{
			"buffer":0,
			"byteLength":71928,
			"byteOffset":215784,
			"target":34962
		},
		{
			"buffer":0,
			"byteLength":99936,
			"byteOffset":287712,
			"target":34963
		},
		{
			"buffer":0,
			"byteLength":6048,
			"byteOffset":387648,
			"target":34962
		},
		{
			"buffer":0,
			"byteLength":6048,
			"byteOffset":393696,
			"target":34962
		},
		{
			"buffer":0,
			"byteLength":4032,
			"byteOffset":399744,
			"target":34962
		},
		{
			"buffer":0,
			"byteLength":5544,
			"byteOffset":403776,
			"target":34963
		},
		{
			"buffer":0,
			"byteLength":48,
			"byteOffset":409320,
			"target":34962
		},
		{
			"buffer":0,
			"byteLength":48,
			"byteOffset":409368,
			"target":34962
		},
		{
			"buffer":0,
			"byteLength":32,
			"byteOffset":409416,
			"target":34962
		},
		{
			"buffer":0,
			"byteLength":12,
			"byteOffset":409448,
			"target":34963
		}
	],
	"buffers":[
		{
			"byteLength":409460,
			"uri":"AirplaneForFree.bin"
		}
	]
}
